<svg viewBox="0 0 512 512" xmlns="http://www.w3.org/2000/svg" xmlns:xlink="http://www.w3.org/1999/xlink" overflow="hidden"><path d="M505.04 442.66 405.33 342.97C400.83 338.47 394.73 335.97 388.33 335.97L372.03 335.97C399.63 300.67 416.03 256.28 416.03 207.98 416.03 93.09 322.92 0 208.02 0 93.12 0 0 93.09 0 207.98 0 322.87 93.11 415.96 208.02 415.96 256.32 415.96 300.73 399.56 336.03 371.96L336.03 388.26C336.03 394.66 338.53 400.76 343.03 405.26L442.74 504.95C452.14 514.35 467.34 514.35 476.64 504.95L504.94 476.65C514.34 467.25 514.34 452.06 505.04 442.66ZM208.02 351.96C128.48 351.96 64.02 287.62 64.02 207.98 64.02 128.45 128.37 64 208.02 64 287.56 64 352.02 128.34 352.02 207.98 352.02 287.51 287.67 351.96 208.02 351.96ZM235.13 199.42 190.12 185.92C184.96 184.37 181.35 179.14 181.35 173.19 181.35 165.92 186.65 160 193.15 160L221.26 160C225.82 160 230.22 161.29 234.08 163.72 237.32 165.75 241.44 165.63 244.21 162.99L255.96 151.78C259.49 148.41 259.29 142.57 255.39 139.64 246.29 132.81 235.31 128.87 224.02 128.29L224.02 112C224.02 107.58 220.44 104 216.02 104L200.02 104C195.6 104 192.02 107.58 192.02 112L192.02 128.12C168.39 128.75 149.34 148.67 149.34 173.19 149.34 193.16 162.33 211 180.92 216.58L225.93 230.08C231.09 231.63 234.7 236.86 234.7 242.81 234.7 250.08 229.4 256 222.9 256L194.8 256C190.24 256 185.84 254.71 181.98 252.28 178.74 250.25 174.62 250.37 171.85 253.01L160.1 264.22C156.57 267.59 156.77 273.43 160.67 276.36 169.77 283.19 180.75 287.13 192.04 287.71L192.04 304C192.04 308.42 195.62 312 200.04 312L216.04 312C220.46 312 224.04 308.42 224.04 304L224.04 287.88C247.67 287.25 266.72 267.34 266.72 242.81 266.72 222.84 253.73 205 235.13 199.42Z" fill="#00CC00"/></svg>